name C:\Users\u0101727\Documents\MyRepositories\paper-ad\predictivesimulations_2d/Results/PredSim_2D/IK_c5.mot
datacolumns 11
datarows 17
range 0.63318787 0.78668796
endheader
time	pelvis_tilt	pelvis_tx	pelvis_ty	hip_flexion_l	hip_flexion_r	knee_angle_l	knee_angle_r	ankle_angle_l	ankle_angle_r	lumbar_extension	
          0.63318787	        -15.08299393	          0.85496914	          0.89985257	         25.72527660	         11.40019203	        -10.65591858	        -40.88629144	          8.49891193	         -0.30585174	         10.34308965	
          0.64278163	        -15.10008147	          0.86694187	          0.90128989	         24.80651347	         12.67308186	        -10.40899727	        -41.78279040	          8.60160496	          0.67033462	         10.30474213	
          0.65237538	        -15.11468783	          0.87885878	          0.90248357	         23.87247302	         13.97843016	        -10.13722464	        -42.57141046	          8.74508213	          1.72646168	         10.26240525	
          0.66196914	        -15.12679885	          0.89072747	          0.90343689	         22.92758401	         15.31122554	         -9.84839017	        -43.24397627	          8.92347212	          2.84486173	         10.21639906	
          0.67156289	        -15.13653922	          0.90255525	          0.90416046	         21.97573476	         16.66547465	         -9.54954535	        -43.79296782	          9.13027360	          4.00772185	         10.16720196	
          0.68115665	        -15.14407131	          0.91434837	          0.90467128	         21.02110795	         18.03536280	         -9.24826753	        -44.21069698	          9.35780607	          5.19719615	         10.11524067	
          0.69075040	        -15.14953635	          0.92611235	          0.90499011	         20.06827717	         19.41540537	         -8.95240457	        -44.48934350	          9.59803142	          6.39546756	         10.06085664	
          0.70034416	        -15.15308025	          0.93785317	          0.90513838	         19.12204550	         20.79909735	         -8.67034534	        -44.62196940	          9.84301034	          7.58474391	         10.00443023	
          0.70993791	        -15.15492336	          0.94957788	          0.90513638	         18.18565226	         22.17954020	         -8.40770386	        -44.60292358	         10.08541982	          8.74735856	          9.94649219	
          0.71953167	        -15.15538262	          0.96129482	          0.90500220	         17.25990499	         23.54983312	         -8.16576608	        -44.42817814	         10.31862342	          9.86594563	          9.88778589	
          0.72912543	        -15.15473990	          0.97301277	          0.90475134	         16.34621336	         24.90207386	         -7.94734291	        -44.09575704	         10.53583347	         10.92376712	          9.82904734	
          0.73871918	        -15.15323963	          0.98473991	          0.90439693	         15.44672705	         26.22831919	         -7.75603556	        -43.60466745	         10.73097671	         11.90538296	          9.77089451	
          0.74831294	        -15.15112326	          0.99648532	          0.90394964	         14.56301549	         27.51976230	         -7.59485712	        -42.95793775	         10.89942346	         12.79739409	          9.71406207	
          0.75790669	        -15.14864896	          1.00825747	          0.90341855	         13.69601709	         28.76835316	         -7.46588023	        -42.16014412	         11.03821103	         13.58957116	          9.65924482	
          0.76750045	        -15.14608058	          1.02006293	          0.90281173	         12.84659912	         29.96793503	         -7.37017423	        -41.21558443	         11.14620629	         14.27583475	          9.60692458	
          0.77709420	        -15.14365674	          1.03190803	          0.90213570	         12.01545741	         31.11279748	         -7.30938513	        -40.13098229	         11.22413742	         14.85458597	          9.55754401	
          0.78668796	        -15.14159894	          1.04379713	          0.90139578	         11.20291527	         32.19997695	         -7.28443666	        -38.91185812	         11.27481729	         15.32865253	          9.51129446	
